<svg width="26" height="25" viewBox="0 0 26 25" fill="none" xmlns="http://www.w3.org/2000/svg">
<g clip-path="url(#clip0_2211_435)">
<path d="M20.9792 4.15626C18.2292 2.28126 14.8333 3.15626 13 5.30209C11.1667 3.15626 7.77083 2.27084 5.02083 4.15626C3.5625 5.15626 2.64583 6.84376 2.58333 8.62501C2.4375 12.6667 6.02083 15.9063 11.4896 20.875L11.5937 20.9688C12.3854 21.6875 13.6042 21.6875 14.3958 20.9583L14.5104 20.8542C19.9792 15.8958 23.5521 12.6563 23.4167 8.61459C23.3542 6.84376 22.4375 5.15626 20.9792 4.15626ZM13.1042 19.3229L13 19.4271L12.8958 19.3229C7.9375 14.8333 4.66667 11.8646 4.66667 8.85418C4.66667 6.77084 6.22917 5.20834 8.3125 5.20834C9.91667 5.20834 11.4792 6.23959 12.0312 7.66668H13.9792C14.5208 6.23959 16.0833 5.20834 17.6875 5.20834C19.7708 5.20834 21.3333 6.77084 21.3333 8.85418C21.3333 11.8646 18.0625 14.8333 13.1042 19.3229Z" fill="#E0E0E0"/>
</g>
<defs>
<clipPath id="clip0_2211_435">
<rect width="25" height="25" fill="white" transform="translate(0.5)"/>
</clipPath>
</defs>
</svg>
