<svg width="16" height="17" viewBox="0 0 16 17" fill="none" xmlns="http://www.w3.org/2000/svg">
<g clip-path="url(#clip0_2214_31040)">
<path d="M14.6667 6.5H11.4734L8.54675 2.12C8.28008 1.72666 7.70008 1.72666 7.44008 2.12L4.51341 6.5H1.33341C0.966748 6.5 0.666748 6.8 0.666748 7.16666C0.666748 7.22666 0.673415 7.28666 0.693415 7.34666L2.38675 13.5267C2.54008 14.0867 3.05341 14.5 3.66675 14.5H12.3334C12.9467 14.5 13.4601 14.0867 13.6201 13.5267L15.3134 7.34666L15.3334 7.16666C15.3334 6.8 15.0334 6.5 14.6667 6.5ZM7.99341 3.69333L9.86675 6.5H6.12008L7.99341 3.69333ZM8.00008 11.8333C7.26675 11.8333 6.66675 11.2333 6.66675 10.5C6.66675 9.76666 7.26675 9.16666 8.00008 9.16666C8.73341 9.16666 9.33341 9.76666 9.33341 10.5C9.33341 11.2333 8.73341 11.8333 8.00008 11.8333Z" fill="#27AE60"/>
</g>
<defs>
<clipPath id="clip0_2214_31040">
<rect width="16" height="16" fill="white" transform="translate(0 0.5)"/>
</clipPath>
</defs>
</svg>
