<svg width="16" height="17" viewBox="0 0 16 17" fill="none" xmlns="http://www.w3.org/2000/svg">
<g clip-path="url(#clip0_2214_13083)">
<path d="M14.6667 6.49995H11.4733L8.54666 2.11995C8.27999 1.72662 7.69999 1.72662 7.43999 2.11995L4.51332 6.49995H1.33332C0.966656 6.49995 0.666656 6.79995 0.666656 7.16662C0.666656 7.22662 0.673323 7.28662 0.693323 7.34662L2.38666 13.5266C2.53999 14.0866 3.05332 14.5 3.66666 14.5H12.3333C12.9467 14.5 13.46 14.0866 13.62 13.5266L15.3133 7.34662L15.3333 7.16662C15.3333 6.79995 15.0333 6.49995 14.6667 6.49995ZM7.99332 3.69328L9.86666 6.49995H6.11999L7.99332 3.69328ZM7.99999 11.8333C7.26666 11.8333 6.66666 11.2333 6.66666 10.5C6.66666 9.76662 7.26666 9.16662 7.99999 9.16662C8.73332 9.16662 9.33332 9.76662 9.33332 10.5C9.33332 11.2333 8.73332 11.8333 7.99999 11.8333Z" fill="#27AE60"/>
</g>
<defs>
<clipPath id="clip0_2214_13083">
<rect width="16" height="16" fill="white" transform="translate(0 0.5)"/>
</clipPath>
</defs>
</svg>
