<svg width="9" height="10" viewBox="0 0 9 10" fill="none" xmlns="http://www.w3.org/2000/svg">
<g clip-path="url(#clip0_2214_33031)">
<path d="M3.41664 3.55556C3.21803 3.55556 3.05553 3.71806 3.05553 3.91668V5.00001H1.9722C1.77358 5.00001 1.61108 5.16251 1.61108 5.36112C1.61108 5.55973 1.77358 5.72223 1.9722 5.72223H3.05553V6.80556C3.05553 7.00418 3.21803 7.16668 3.41664 7.16668C3.61525 7.16668 3.77775 7.00418 3.77775 6.80556V5.72223H4.86108C5.0597 5.72223 5.2222 5.55973 5.2222 5.36112C5.2222 5.16251 5.0597 5.00001 4.86108 5.00001H3.77775V3.91668C3.77775 3.71806 3.61525 3.55556 3.41664 3.55556ZM5.40275 3.11862C5.40275 3.32445 5.59053 3.47973 5.79275 3.44001L6.30553 3.3389V6.80556C6.30553 7.00418 6.46803 7.16668 6.66664 7.16668C6.86525 7.16668 7.02775 7.00418 7.02775 6.80556V2.93084C7.02775 2.69612 6.81108 2.5264 6.58358 2.58056L5.65553 2.80445C5.50747 2.83695 5.40275 2.97056 5.40275 3.11862Z" fill="#27AE60"/>
</g>
<defs>
<clipPath id="clip0_2214_33031">
<rect width="8.66667" height="8.66667" fill="white" transform="translate(0.166626 0.666687)"/>
</clipPath>
</defs>
</svg>
