<svg width="20" height="20" viewBox="0 0 20 20" fill="none" xmlns="http://www.w3.org/2000/svg">
<g clip-path="url(#clip0_2214_14502)">
<path d="M13.75 9.99984C14.9 9.99984 15.825 9.0665 15.825 7.9165C15.825 6.7665 14.9 5.83317 13.75 5.83317C12.6 5.83317 11.6666 6.7665 11.6666 7.9165C11.6666 9.0665 12.6 9.99984 13.75 9.99984ZM7.49996 9.1665C8.88329 9.1665 9.99163 8.04984 9.99163 6.6665C9.99163 5.28317 8.88329 4.1665 7.49996 4.1665C6.11663 4.1665 4.99996 5.28317 4.99996 6.6665C4.99996 8.04984 6.11663 9.1665 7.49996 9.1665ZM13.75 11.6665C12.225 11.6665 9.16663 12.4332 9.16663 13.9582V14.9998C9.16663 15.4582 9.54163 15.8332 9.99996 15.8332H17.5C17.9583 15.8332 18.3333 15.4582 18.3333 14.9998V13.9582C18.3333 12.4332 15.275 11.6665 13.75 11.6665ZM7.49996 10.8332C5.55829 10.8332 1.66663 11.8082 1.66663 13.7498V14.9998C1.66663 15.4582 2.04163 15.8332 2.49996 15.8332H7.49996V13.9582C7.49996 13.2498 7.77496 12.0082 9.47496 11.0665C8.74996 10.9165 8.04996 10.8332 7.49996 10.8332Z" fill="#27AE60"/>
</g>
<defs>
<clipPath id="clip0_2214_14502">
<rect width="20" height="20" fill="white"/>
</clipPath>
</defs>
</svg>
