<svg width="16" height="17" viewBox="0 0 16 17" fill="none" xmlns="http://www.w3.org/2000/svg">
<g clip-path="url(#clip0_2214_13434)">
<path d="M14.6667 6.49995H11.4734L8.54675 2.11995C8.28008 1.72662 7.70008 1.72662 7.44008 2.11995L4.51341 6.49995H1.33341C0.966748 6.49995 0.666748 6.79995 0.666748 7.16662C0.666748 7.22662 0.673415 7.28662 0.693415 7.34662L2.38675 13.5266C2.54008 14.0866 3.05341 14.5 3.66675 14.5H12.3334C12.9467 14.5 13.4601 14.0866 13.6201 13.5266L15.3134 7.34662L15.3334 7.16662C15.3334 6.79995 15.0334 6.49995 14.6667 6.49995ZM7.99341 3.69328L9.86675 6.49995H6.12008L7.99341 3.69328ZM8.00008 11.8333C7.26675 11.8333 6.66675 11.2333 6.66675 10.5C6.66675 9.76662 7.26675 9.16662 8.00008 9.16662C8.73341 9.16662 9.33341 9.76662 9.33341 10.5C9.33341 11.2333 8.73341 11.8333 8.00008 11.8333Z" fill="#27AE60"/>
</g>
<defs>
<clipPath id="clip0_2214_13434">
<rect width="16" height="16" fill="white" transform="translate(0 0.5)"/>
</clipPath>
</defs>
</svg>
