<svg width="9" height="10" viewBox="0 0 9 10" fill="none" xmlns="http://www.w3.org/2000/svg">
<g clip-path="url(#clip0_2214_3752)">
<path d="M3.41688 3.55544C3.21827 3.55544 3.05577 3.71794 3.05577 3.91655V4.99989H1.97244C1.77383 4.99989 1.61133 5.16239 1.61133 5.361C1.61133 5.55961 1.77383 5.72211 1.97244 5.72211H3.05577V6.80544C3.05577 7.00405 3.21827 7.16655 3.41688 7.16655C3.61549 7.16655 3.77799 7.00405 3.77799 6.80544V5.72211H4.86133C5.05994 5.72211 5.22244 5.55961 5.22244 5.361C5.22244 5.16239 5.05994 4.99989 4.86133 4.99989H3.77799V3.91655C3.77799 3.71794 3.61549 3.55544 3.41688 3.55544ZM5.40299 3.1185C5.40299 3.32433 5.59077 3.47961 5.79299 3.43989L6.30577 3.33878V6.80544C6.30577 7.00405 6.46827 7.16655 6.66688 7.16655C6.86549 7.16655 7.02799 7.00405 7.02799 6.80544V2.93072C7.02799 2.696 6.81133 2.52628 6.58383 2.58044L5.65577 2.80433C5.50772 2.83683 5.40299 2.97044 5.40299 3.1185Z" fill="#27AE60"/>
</g>
<defs>
<clipPath id="clip0_2214_3752">
<rect width="8.66667" height="8.66667" fill="white" transform="translate(0.166016 0.666504)"/>
</clipPath>
</defs>
</svg>
