<svg width="14" height="14" viewBox="0 0 14 14" fill="none" xmlns="http://www.w3.org/2000/svg">
<g clip-path="url(#clip0_2211_451)">
<path d="M11.6667 2.33334H2.33332C1.69166 2.33334 1.17249 2.85834 1.17249 3.50001L1.16666 10.5C1.16666 11.1417 1.69166 11.6667 2.33332 11.6667H11.6667C12.3083 11.6667 12.8333 11.1417 12.8333 10.5V3.50001C12.8333 2.85834 12.3083 2.33334 11.6667 2.33334ZM11.4333 4.81251L7.30916 7.39084C7.12249 7.50751 6.87749 7.50751 6.69082 7.39084L2.56666 4.81251C2.42082 4.71918 2.33332 4.56168 2.33332 4.39251C2.33332 4.00168 2.75916 3.76834 3.09166 3.97251L6.99999 6.41668L10.9083 3.97251C11.2408 3.76834 11.6667 4.00168 11.6667 4.39251C11.6667 4.56168 11.5792 4.71918 11.4333 4.81251Z" fill="#BDBDBD"/>
</g>
<defs>
<clipPath id="clip0_2211_451">
<rect width="14" height="14" fill="white"/>
</clipPath>
</defs>
</svg>
