<svg width="9" height="10" viewBox="0 0 9 10" fill="none" xmlns="http://www.w3.org/2000/svg">
<g clip-path="url(#clip0_2214_32957)">
<path d="M3.41667 3.55556C3.21806 3.55556 3.05556 3.71806 3.05556 3.91668V5.00001H1.97223C1.77361 5.00001 1.61111 5.16251 1.61111 5.36112C1.61111 5.55973 1.77361 5.72223 1.97223 5.72223H3.05556V6.80556C3.05556 7.00418 3.21806 7.16668 3.41667 7.16668C3.61528 7.16668 3.77778 7.00418 3.77778 6.80556V5.72223H4.86111C5.05973 5.72223 5.22223 5.55973 5.22223 5.36112C5.22223 5.16251 5.05973 5.00001 4.86111 5.00001H3.77778V3.91668C3.77778 3.71806 3.61528 3.55556 3.41667 3.55556ZM5.40278 3.11862C5.40278 3.32445 5.59056 3.47973 5.79278 3.44001L6.30556 3.3389V6.80556C6.30556 7.00418 6.46806 7.16668 6.66667 7.16668C6.86528 7.16668 7.02778 7.00418 7.02778 6.80556V2.93084C7.02778 2.69612 6.81111 2.5264 6.58361 2.58056L5.65556 2.80445C5.5075 2.83695 5.40278 2.97056 5.40278 3.11862Z" fill="#27AE60"/>
</g>
<defs>
<clipPath id="clip0_2214_32957">
<rect width="8.66667" height="8.66667" fill="white" transform="translate(0.166656 0.666687)"/>
</clipPath>
</defs>
</svg>
