<svg width="20" height="20" viewBox="0 0 20 20" fill="none" xmlns="http://www.w3.org/2000/svg">
<g clip-path="url(#clip0_2214_33207)">
<path d="M13.3333 3.33335C13.3333 2.40835 14.075 1.66669 15 1.66669C15.925 1.66669 16.6667 2.40835 16.6667 3.33335C16.6667 4.25835 15.925 5.00002 15 5.00002C14.075 5.00002 13.3333 4.25835 13.3333 3.33335ZM16.6667 17.5V13.3334H17.5917C18.1583 13.3334 18.5583 12.775 18.3833 12.2334L16.6333 6.97502C16.4 6.29169 15.7667 5.83335 15.05 5.83335H14.95C14.2333 5.83335 13.5917 6.29169 13.3667 6.97502L12.65 9.12502C13.55 9.62502 14.1667 10.5667 14.1667 11.6667V18.3334H15.8333C16.2917 18.3334 16.6667 17.9584 16.6667 17.5ZM10.4167 9.58335C11.1083 9.58335 11.6667 9.02502 11.6667 8.33335C11.6667 7.64169 11.1083 7.08335 10.4167 7.08335C9.72499 7.08335 9.16666 7.64169 9.16666 8.33335C9.16666 9.02502 9.72499 9.58335 10.4167 9.58335ZM4.58332 5.00002C5.50832 5.00002 6.24999 4.25835 6.24999 3.33335C6.24999 2.40835 5.50832 1.66669 4.58332 1.66669C3.65832 1.66669 2.91666 2.40835 2.91666 3.33335C2.91666 4.25835 3.65832 5.00002 4.58332 5.00002ZM6.24999 17.5V12.5H6.66666C7.12499 12.5 7.49999 12.125 7.49999 11.6667V7.50002C7.49999 6.58335 6.74999 5.83335 5.83332 5.83335H3.33332C2.41666 5.83335 1.66666 6.58335 1.66666 7.50002V11.6667C1.66666 12.125 2.04166 12.5 2.49999 12.5H2.91666V17.5C2.91666 17.9584 3.29166 18.3334 3.74999 18.3334H5.41666C5.87499 18.3334 6.24999 17.9584 6.24999 17.5ZM8.33332 11.6667V14.1667C8.33332 14.625 8.70832 15 9.16666 15V17.5C9.16666 17.9584 9.54166 18.3334 9.99999 18.3334H10.8333C11.2917 18.3334 11.6667 17.9584 11.6667 17.5V15C12.125 15 12.5 14.625 12.5 14.1667V11.6667C12.5 10.9834 11.9333 10.4167 11.25 10.4167H9.58332C8.89999 10.4167 8.33332 10.9834 8.33332 11.6667Z" fill="#BDBDBD"/>
</g>
<defs>
<clipPath id="clip0_2214_33207">
<rect width="20" height="20" fill="white"/>
</clipPath>
</defs>
</svg>
