<svg width="16" height="17" viewBox="0 0 16 17" fill="none" xmlns="http://www.w3.org/2000/svg">
<g clip-path="url(#clip0_2214_12980)">
<path d="M14.6666 6.49995H11.4733L8.54663 2.11995C8.27996 1.72662 7.69996 1.72662 7.43996 2.11995L4.51329 6.49995H1.33329C0.966626 6.49995 0.666626 6.79995 0.666626 7.16662C0.666626 7.22662 0.673293 7.28662 0.693293 7.34662L2.38663 13.5266C2.53996 14.0866 3.05329 14.5 3.66663 14.5H12.3333C12.9466 14.5 13.46 14.0866 13.62 13.5266L15.3133 7.34662L15.3333 7.16662C15.3333 6.79995 15.0333 6.49995 14.6666 6.49995ZM7.99329 3.69328L9.86663 6.49995H6.11996L7.99329 3.69328ZM7.99996 11.8333C7.26663 11.8333 6.66663 11.2333 6.66663 10.5C6.66663 9.76662 7.26663 9.16662 7.99996 9.16662C8.73329 9.16662 9.33329 9.76662 9.33329 10.5C9.33329 11.2333 8.73329 11.8333 7.99996 11.8333Z" fill="#27AE60"/>
</g>
<defs>
<clipPath id="clip0_2214_12980">
<rect width="16" height="16" fill="white" transform="translate(0 0.5)"/>
</clipPath>
</defs>
</svg>
