<svg width="16" height="17" viewBox="0 0 16 17" fill="none" xmlns="http://www.w3.org/2000/svg">
<g clip-path="url(#clip0_2211_69)">
<path d="M14.6667 6.50001H11.4734L8.54669 2.12001C8.28002 1.72668 7.70002 1.72668 7.44002 2.12001L4.51335 6.50001H1.33335C0.966687 6.50001 0.666687 6.80001 0.666687 7.16668C0.666687 7.22668 0.673354 7.28668 0.693354 7.34668L2.38669 13.5267C2.54002 14.0867 3.05335 14.5 3.66669 14.5H12.3334C12.9467 14.5 13.46 14.0867 13.62 13.5267L15.3134 7.34668L15.3334 7.16668C15.3334 6.80001 15.0334 6.50001 14.6667 6.50001ZM7.99335 3.69335L9.86669 6.50001H6.12002L7.99335 3.69335ZM8.00002 11.8333C7.26669 11.8333 6.66669 11.2333 6.66669 10.5C6.66669 9.76668 7.26669 9.16668 8.00002 9.16668C8.73335 9.16668 9.33335 9.76668 9.33335 10.5C9.33335 11.2333 8.73335 11.8333 8.00002 11.8333Z" fill="#27AE60"/>
</g>
<defs>
<clipPath id="clip0_2211_69">
<rect width="16" height="16" fill="white" transform="translate(0 0.5)"/>
</clipPath>
</defs>
</svg>
