<svg width="14" height="14" viewBox="0 0 14 14" fill="none" xmlns="http://www.w3.org/2000/svg">
<g clip-path="url(#clip0_2211_446)">
<path d="M6.99999 1.16666C4.74249 1.16666 2.91666 2.99249 2.91666 5.24999C2.91666 7.68249 5.49499 11.0367 6.55666 12.3142C6.78999 12.5942 7.21582 12.5942 7.44916 12.3142C8.50499 11.0367 11.0833 7.68249 11.0833 5.24999C11.0833 2.99249 9.25749 1.16666 6.99999 1.16666ZM6.99999 6.70832C6.19499 6.70832 5.54166 6.05499 5.54166 5.24999C5.54166 4.44499 6.19499 3.79166 6.99999 3.79166C7.80499 3.79166 8.45832 4.44499 8.45832 5.24999C8.45832 6.05499 7.80499 6.70832 6.99999 6.70832Z" fill="#BDBDBD"/>
</g>
<defs>
<clipPath id="clip0_2211_446">
<rect width="14" height="14" fill="white"/>
</clipPath>
</defs>
</svg>
