<svg width="20" height="20" viewBox="0 0 20 20" fill="none" xmlns="http://www.w3.org/2000/svg">
<g clip-path="url(#clip0_2214_32761)">
<path d="M15.8333 2.49998H12.35C12 1.53331 11.0833 0.833313 10 0.833313C8.91667 0.833313 8 1.53331 7.65 2.49998H4.16667C3.25 2.49998 2.5 3.24998 2.5 4.16665V15.8333C2.5 16.75 3.25 17.5 4.16667 17.5H15.8333C16.75 17.5 17.5 16.75 17.5 15.8333V4.16665C17.5 3.24998 16.75 2.49998 15.8333 2.49998ZM10 2.49998C10.4583 2.49998 10.8333 2.87498 10.8333 3.33331C10.8333 3.79165 10.4583 4.16665 10 4.16665C9.54167 4.16665 9.16667 3.79165 9.16667 3.33331C9.16667 2.87498 9.54167 2.49998 10 2.49998ZM10.8333 14.1666H6.66667C6.20833 14.1666 5.83333 13.7916 5.83333 13.3333C5.83333 12.875 6.20833 12.5 6.66667 12.5H10.8333C11.2917 12.5 11.6667 12.875 11.6667 13.3333C11.6667 13.7916 11.2917 14.1666 10.8333 14.1666ZM13.3333 10.8333H6.66667C6.20833 10.8333 5.83333 10.4583 5.83333 9.99998C5.83333 9.54165 6.20833 9.16665 6.66667 9.16665H13.3333C13.7917 9.16665 14.1667 9.54165 14.1667 9.99998C14.1667 10.4583 13.7917 10.8333 13.3333 10.8333ZM13.3333 7.49998H6.66667C6.20833 7.49998 5.83333 7.12498 5.83333 6.66665C5.83333 6.20831 6.20833 5.83331 6.66667 5.83331H13.3333C13.7917 5.83331 14.1667 6.20831 14.1667 6.66665C14.1667 7.12498 13.7917 7.49998 13.3333 7.49998Z" fill="#BDBDBD"/>
</g>
<defs>
<clipPath id="clip0_2214_32761">
<rect width="20" height="20" fill="white"/>
</clipPath>
</defs>
</svg>
