<svg width="9" height="10" viewBox="0 0 9 10" fill="none" xmlns="http://www.w3.org/2000/svg">
<g clip-path="url(#clip0_2214_13087)">
<path d="M3.41667 3.55569C3.21806 3.55569 3.05556 3.71819 3.05556 3.9168V5.00013H1.97223C1.77361 5.00013 1.61111 5.16263 1.61111 5.36124C1.61111 5.55985 1.77361 5.72235 1.97223 5.72235H3.05556V6.80569C3.05556 7.0043 3.21806 7.1668 3.41667 7.1668C3.61528 7.1668 3.77778 7.0043 3.77778 6.80569V5.72235H4.86111C5.05973 5.72235 5.22223 5.55985 5.22223 5.36124C5.22223 5.16263 5.05973 5.00013 4.86111 5.00013H3.77778V3.9168C3.77778 3.71819 3.61528 3.55569 3.41667 3.55569ZM5.40278 3.11874C5.40278 3.32458 5.59056 3.47985 5.79278 3.44013L6.30556 3.33902V6.80569C6.30556 7.0043 6.46806 7.1668 6.66667 7.1668C6.86528 7.1668 7.02778 7.0043 7.02778 6.80569V2.93096C7.02778 2.69624 6.81111 2.52652 6.58361 2.58069L5.65556 2.80458C5.5075 2.83708 5.40278 2.97069 5.40278 3.11874Z" fill="#27AE60"/>
</g>
<defs>
<clipPath id="clip0_2214_13087">
<rect width="8.66667" height="8.66667" fill="white" transform="translate(0.166656 0.666748)"/>
</clipPath>
</defs>
</svg>
