<svg width="14" height="14" viewBox="0 0 14 14" fill="none" xmlns="http://www.w3.org/2000/svg">
<g clip-path="url(#clip0_2211_365)">
<path d="M11.6667 2.33333H2.33332C1.69166 2.33333 1.17249 2.85833 1.17249 3.49999L1.16666 10.5C1.16666 11.1417 1.69166 11.6667 2.33332 11.6667H11.6667C12.3083 11.6667 12.8333 11.1417 12.8333 10.5V3.49999C12.8333 2.85833 12.3083 2.33333 11.6667 2.33333ZM11.4333 4.81249L7.30916 7.39083C7.12249 7.5075 6.87749 7.5075 6.69082 7.39083L2.56666 4.81249C2.42082 4.71916 2.33332 4.56166 2.33332 4.3925C2.33332 4.00166 2.75916 3.76833 3.09166 3.97249L6.99999 6.41666L10.9083 3.97249C11.2408 3.76833 11.6667 4.00166 11.6667 4.3925C11.6667 4.56166 11.5792 4.71916 11.4333 4.81249Z" fill="#BDBDBD"/>
</g>
<defs>
<clipPath id="clip0_2211_365">
<rect width="14" height="14" fill="white"/>
</clipPath>
</defs>
</svg>
