<svg width="16" height="16" viewBox="0 0 16 16" fill="none" xmlns="http://www.w3.org/2000/svg">
<g clip-path="url(#clip0_2214_35040)">
<path d="M10.3333 9.33334H9.80666L9.61999 9.15334C10.42 8.22 10.8333 6.94667 10.6067 5.59334C10.2933 3.74001 8.74666 2.26001 6.87999 2.03334C4.05999 1.68667 1.68666 4.06 2.03332 6.88C2.25999 8.74667 3.73999 10.2933 5.59332 10.6067C6.94666 10.8333 8.21999 10.42 9.15332 9.62L9.33332 9.80667V10.3333L12.1667 13.1667C12.44 13.44 12.8867 13.44 13.16 13.1667C13.4333 12.8933 13.4333 12.4467 13.16 12.1733L10.3333 9.33334ZM6.33332 9.33334C4.67332 9.33334 3.33332 7.99334 3.33332 6.33334C3.33332 4.67334 4.67332 3.33334 6.33332 3.33334C7.99332 3.33334 9.33332 4.67334 9.33332 6.33334C9.33332 7.99334 7.99332 9.33334 6.33332 9.33334Z" fill="#BDBDBD"/>
</g>
<defs>
<clipPath id="clip0_2214_35040">
<rect width="16" height="16" fill="white"/>
</clipPath>
</defs>
</svg>
