<svg width="16" height="17" viewBox="0 0 16 17" fill="none" xmlns="http://www.w3.org/2000/svg">
<g clip-path="url(#clip0_2214_14606)">
<path d="M14.6667 6.5002H11.4734L8.54675 2.1202C8.28008 1.72686 7.70008 1.72686 7.44008 2.1202L4.51341 6.5002H1.33341C0.966748 6.5002 0.666748 6.8002 0.666748 7.16686C0.666748 7.22686 0.673415 7.28686 0.693415 7.34686L2.38675 13.5269C2.54008 14.0869 3.05341 14.5002 3.66675 14.5002H12.3334C12.9467 14.5002 13.4601 14.0869 13.6201 13.5269L15.3134 7.34686L15.3334 7.16686C15.3334 6.8002 15.0334 6.5002 14.6667 6.5002ZM7.99341 3.69353L9.86675 6.5002H6.12008L7.99341 3.69353ZM8.00008 11.8335C7.26675 11.8335 6.66675 11.2335 6.66675 10.5002C6.66675 9.76686 7.26675 9.16686 8.00008 9.16686C8.73341 9.16686 9.33341 9.76686 9.33341 10.5002C9.33341 11.2335 8.73341 11.8335 8.00008 11.8335Z" fill="#27AE60"/>
</g>
<defs>
<clipPath id="clip0_2214_14606">
<rect width="16" height="16" fill="white" transform="translate(0 0.5)"/>
</clipPath>
</defs>
</svg>
