<svg width="16" height="17" viewBox="0 0 16 17" fill="none" xmlns="http://www.w3.org/2000/svg">
<g clip-path="url(#clip0_2214_33027)">
<path d="M14.6666 6.50001H11.4733L8.54663 2.12001C8.27996 1.72668 7.69996 1.72668 7.43996 2.12001L4.51329 6.50001H1.33329C0.966626 6.50001 0.666626 6.80001 0.666626 7.16668C0.666626 7.22668 0.673293 7.28668 0.693293 7.34668L2.38663 13.5267C2.53996 14.0867 3.05329 14.5 3.66663 14.5H12.3333C12.9466 14.5 13.46 14.0867 13.62 13.5267L15.3133 7.34668L15.3333 7.16668C15.3333 6.80001 15.0333 6.50001 14.6666 6.50001ZM7.99329 3.69335L9.86663 6.50001H6.11996L7.99329 3.69335ZM7.99996 11.8333C7.26663 11.8333 6.66663 11.2333 6.66663 10.5C6.66663 9.76668 7.26663 9.16668 7.99996 9.16668C8.73329 9.16668 9.33329 9.76668 9.33329 10.5C9.33329 11.2333 8.73329 11.8333 7.99996 11.8333Z" fill="#27AE60"/>
</g>
<defs>
<clipPath id="clip0_2214_33027">
<rect width="16" height="16" fill="white" transform="translate(0 0.5)"/>
</clipPath>
</defs>
</svg>
