<svg width="16" height="17" viewBox="0 0 16 17" fill="none" xmlns="http://www.w3.org/2000/svg">
<g clip-path="url(#clip0_2214_3748)">
<path d="M14.666 6.5002H11.4727L8.54601 2.1202C8.27935 1.72686 7.69935 1.72686 7.43935 2.1202L4.51268 6.5002H1.33268C0.966016 6.5002 0.666016 6.8002 0.666016 7.16686C0.666016 7.22686 0.672682 7.28686 0.692682 7.34686L2.38602 13.5269C2.53935 14.0869 3.05268 14.5002 3.66602 14.5002H12.3327C12.946 14.5002 13.4593 14.0869 13.6193 13.5269L15.3127 7.34686L15.3327 7.16686C15.3327 6.8002 15.0327 6.5002 14.666 6.5002ZM7.99268 3.69353L9.86602 6.5002H6.11935L7.99268 3.69353ZM7.99935 11.8335C7.26602 11.8335 6.66602 11.2335 6.66602 10.5002C6.66602 9.76686 7.26602 9.16686 7.99935 9.16686C8.73268 9.16686 9.33268 9.76686 9.33268 10.5002C9.33268 11.2335 8.73268 11.8335 7.99935 11.8335Z" fill="#27AE60"/>
</g>
<defs>
<clipPath id="clip0_2214_3748">
<rect width="16" height="16" fill="white" transform="translate(0 0.5)"/>
</clipPath>
</defs>
</svg>
