<svg width="16" height="17" viewBox="0 0 16 17" fill="none" xmlns="http://www.w3.org/2000/svg">
<g clip-path="url(#clip0_2214_2397)">
<path d="M14.667 6.5002H11.4737L8.54699 2.1202C8.28032 1.72686 7.70033 1.72686 7.44032 2.1202L4.51366 6.5002H1.33366C0.966992 6.5002 0.666992 6.8002 0.666992 7.16686C0.666992 7.22686 0.673659 7.28686 0.693659 7.34686L2.38699 13.5269C2.54033 14.0869 3.05366 14.5002 3.66699 14.5002H12.3337C12.947 14.5002 13.4603 14.0869 13.6203 13.5269L15.3137 7.34686L15.3337 7.16686C15.3337 6.8002 15.0337 6.5002 14.667 6.5002ZM7.99366 3.69353L9.86699 6.5002H6.12033L7.99366 3.69353ZM8.00033 11.8335C7.26699 11.8335 6.66699 11.2335 6.66699 10.5002C6.66699 9.76686 7.26699 9.16686 8.00033 9.16686C8.73366 9.16686 9.33366 9.76686 9.33366 10.5002C9.33366 11.2335 8.73366 11.8335 8.00033 11.8335Z" fill="#27AE60"/>
</g>
<defs>
<clipPath id="clip0_2214_2397">
<rect width="16" height="16" fill="white" transform="translate(0 0.5)"/>
</clipPath>
</defs>
</svg>
