<svg width="16" height="17" viewBox="0 0 16 17" fill="none" xmlns="http://www.w3.org/2000/svg">
<g clip-path="url(#clip0_2214_14155)">
<path d="M14.6666 6.5002H11.4733L8.54663 2.1202C8.27996 1.72686 7.69996 1.72686 7.43996 2.1202L4.51329 6.5002H1.33329C0.966626 6.5002 0.666626 6.8002 0.666626 7.16686C0.666626 7.22686 0.673293 7.28686 0.693293 7.34686L2.38663 13.5269C2.53996 14.0869 3.05329 14.5002 3.66663 14.5002H12.3333C12.9466 14.5002 13.46 14.0869 13.62 13.5269L15.3133 7.34686L15.3333 7.16686C15.3333 6.8002 15.0333 6.5002 14.6666 6.5002ZM7.99329 3.69353L9.86663 6.5002H6.11996L7.99329 3.69353ZM7.99996 11.8335C7.26663 11.8335 6.66663 11.2335 6.66663 10.5002C6.66663 9.76686 7.26663 9.16686 7.99996 9.16686C8.73329 9.16686 9.33329 9.76686 9.33329 10.5002C9.33329 11.2335 8.73329 11.8335 7.99996 11.8335Z" fill="#27AE60"/>
</g>
<defs>
<clipPath id="clip0_2214_14155">
<rect width="16" height="16" fill="white" transform="translate(0 0.5)"/>
</clipPath>
</defs>
</svg>
