<svg width="14" height="14" viewBox="0 0 14 14" fill="none" xmlns="http://www.w3.org/2000/svg">
<g clip-path="url(#clip0_205_8685)">
<path d="M11.6667 2.33331H2.33335C1.69169 2.33331 1.17252 2.85831 1.17252 3.49998L1.16669 10.5C1.16669 11.1416 1.69169 11.6666 2.33335 11.6666H11.6667C12.3084 11.6666 12.8334 11.1416 12.8334 10.5V3.49998C12.8334 2.85831 12.3084 2.33331 11.6667 2.33331ZM11.4334 4.81248L7.30919 7.39081C7.12252 7.50748 6.87752 7.50748 6.69085 7.39081L2.56669 4.81248C2.42085 4.71915 2.33335 4.56165 2.33335 4.39248C2.33335 4.00165 2.75919 3.76831 3.09169 3.97248L7.00002 6.41665L10.9084 3.97248C11.2409 3.76831 11.6667 4.00165 11.6667 4.39248C11.6667 4.56165 11.5792 4.71915 11.4334 4.81248Z" fill="#BDBDBD"/>
</g>
<defs>
<clipPath id="clip0_205_8685">
<rect width="14" height="14" fill="white"/>
</clipPath>
</defs>
</svg>
