<svg width="14" height="14" viewBox="0 0 14 14" fill="none" xmlns="http://www.w3.org/2000/svg">
<g clip-path="url(#clip0_111_6802)">
<path d="M11.6666 2.33331H2.33329C1.69163 2.33331 1.17246 2.85831 1.17246 3.49998L1.16663 10.5C1.16663 11.1416 1.69163 11.6666 2.33329 11.6666H11.6666C12.3083 11.6666 12.8333 11.1416 12.8333 10.5V3.49998C12.8333 2.85831 12.3083 2.33331 11.6666 2.33331ZM11.4333 4.81248L7.30913 7.39081C7.12246 7.50748 6.87746 7.50748 6.69079 7.39081L2.56663 4.81248C2.42079 4.71915 2.33329 4.56165 2.33329 4.39248C2.33329 4.00165 2.75913 3.76831 3.09163 3.97248L6.99996 6.41665L10.9083 3.97248C11.2408 3.76831 11.6666 4.00165 11.6666 4.39248C11.6666 4.56165 11.5791 4.71915 11.4333 4.81248Z" fill="#27AE60"/>
</g>
<defs>
<clipPath id="clip0_111_6802">
<rect width="14" height="14" fill="white"/>
</clipPath>
</defs>
</svg>
