<svg width="16" height="17" viewBox="0 0 16 17" fill="none" xmlns="http://www.w3.org/2000/svg">
<g clip-path="url(#clip0_2214_32953)">
<path d="M14.6667 6.50001H11.4733L8.54666 2.12001C8.27999 1.72668 7.69999 1.72668 7.43999 2.12001L4.51332 6.50001H1.33332C0.966656 6.50001 0.666656 6.80001 0.666656 7.16668C0.666656 7.22668 0.673323 7.28668 0.693323 7.34668L2.38666 13.5267C2.53999 14.0867 3.05332 14.5 3.66666 14.5H12.3333C12.9467 14.5 13.46 14.0867 13.62 13.5267L15.3133 7.34668L15.3333 7.16668C15.3333 6.80001 15.0333 6.50001 14.6667 6.50001ZM7.99332 3.69335L9.86666 6.50001H6.11999L7.99332 3.69335ZM7.99999 11.8333C7.26666 11.8333 6.66666 11.2333 6.66666 10.5C6.66666 9.76668 7.26666 9.16668 7.99999 9.16668C8.73332 9.16668 9.33332 9.76668 9.33332 10.5C9.33332 11.2333 8.73332 11.8333 7.99999 11.8333Z" fill="#27AE60"/>
</g>
<defs>
<clipPath id="clip0_2214_32953">
<rect width="16" height="16" fill="white" transform="translate(0 0.5)"/>
</clipPath>
</defs>
</svg>
