<svg width="9" height="10" viewBox="0 0 9 10" fill="none" xmlns="http://www.w3.org/2000/svg">
<g clip-path="url(#clip0_2214_12984)">
<path d="M3.41664 3.55569C3.21803 3.55569 3.05553 3.71819 3.05553 3.9168V5.00013H1.9722C1.77358 5.00013 1.61108 5.16263 1.61108 5.36124C1.61108 5.55985 1.77358 5.72235 1.9722 5.72235H3.05553V6.80569C3.05553 7.0043 3.21803 7.1668 3.41664 7.1668C3.61525 7.1668 3.77775 7.0043 3.77775 6.80569V5.72235H4.86108C5.0597 5.72235 5.2222 5.55985 5.2222 5.36124C5.2222 5.16263 5.0597 5.00013 4.86108 5.00013H3.77775V3.9168C3.77775 3.71819 3.61525 3.55569 3.41664 3.55569ZM5.40275 3.11874C5.40275 3.32458 5.59053 3.47985 5.79275 3.44013L6.30553 3.33902V6.80569C6.30553 7.0043 6.46803 7.1668 6.66664 7.1668C6.86525 7.1668 7.02775 7.0043 7.02775 6.80569V2.93096C7.02775 2.69624 6.81108 2.52652 6.58358 2.58069L5.65553 2.80458C5.50747 2.83708 5.40275 2.97069 5.40275 3.11874Z" fill="#27AE60"/>
</g>
<defs>
<clipPath id="clip0_2214_12984">
<rect width="8.66667" height="8.66667" fill="white" transform="translate(0.166626 0.666748)"/>
</clipPath>
</defs>
</svg>
