<svg width="16" height="17" viewBox="0 0 16 17" fill="none" xmlns="http://www.w3.org/2000/svg">
<g clip-path="url(#clip0_2214_13770)">
<path d="M14.6665 6.49995H11.4732L8.5465 2.11995C8.27984 1.72662 7.69984 1.72662 7.43984 2.11995L4.51317 6.49995H1.33317C0.966504 6.49995 0.666504 6.79995 0.666504 7.16662C0.666504 7.22662 0.673171 7.28662 0.693171 7.34662L2.3865 13.5266C2.53984 14.0866 3.05317 14.5 3.6665 14.5H12.3332C12.9465 14.5 13.4598 14.0866 13.6198 13.5266L15.3132 7.34662L15.3332 7.16662C15.3332 6.79995 15.0332 6.49995 14.6665 6.49995ZM7.99317 3.69328L9.8665 6.49995H6.11984L7.99317 3.69328ZM7.99984 11.8333C7.2665 11.8333 6.6665 11.2333 6.6665 10.5C6.6665 9.76662 7.2665 9.16662 7.99984 9.16662C8.73317 9.16662 9.33317 9.76662 9.33317 10.5C9.33317 11.2333 8.73317 11.8333 7.99984 11.8333Z" fill="#27AE60"/>
</g>
<defs>
<clipPath id="clip0_2214_13770">
<rect width="16" height="16" fill="white" transform="translate(0 0.5)"/>
</clipPath>
</defs>
</svg>
