<svg width="9" height="10" viewBox="0 0 9 10" fill="none" xmlns="http://www.w3.org/2000/svg">
<g clip-path="url(#clip0_2214_14610)">
<path d="M3.41664 3.55544C3.21803 3.55544 3.05553 3.71794 3.05553 3.91655V4.99989H1.9722C1.77358 4.99989 1.61108 5.16239 1.61108 5.361C1.61108 5.55961 1.77358 5.72211 1.9722 5.72211H3.05553V6.80544C3.05553 7.00405 3.21803 7.16655 3.41664 7.16655C3.61525 7.16655 3.77775 7.00405 3.77775 6.80544V5.72211H4.86108C5.0597 5.72211 5.2222 5.55961 5.2222 5.361C5.2222 5.16239 5.0597 4.99989 4.86108 4.99989H3.77775V3.91655C3.77775 3.71794 3.61525 3.55544 3.41664 3.55544ZM5.40275 3.1185C5.40275 3.32433 5.59053 3.47961 5.79275 3.43989L6.30553 3.33878V6.80544C6.30553 7.00405 6.46803 7.16655 6.66664 7.16655C6.86525 7.16655 7.02775 7.00405 7.02775 6.80544V2.93072C7.02775 2.696 6.81108 2.52628 6.58358 2.58044L5.65553 2.80433C5.50747 2.83683 5.40275 2.97044 5.40275 3.1185Z" fill="#27AE60"/>
</g>
<defs>
<clipPath id="clip0_2214_14610">
<rect width="8.66667" height="8.66667" fill="white" transform="translate(0.166748 0.666504)"/>
</clipPath>
</defs>
</svg>
