<svg width="130" height="130" viewBox="0 0 130 130" fill="none" xmlns="http://www.w3.org/2000/svg">
<rect width="130" height="130" rx="10" fill="#ECF9F2"/>
<g clip-path="url(#clip0_178_9527)">
<path d="M64.9993 47.2082C68.3827 47.2082 71.1243 49.9498 71.1243 53.3332C71.1243 56.7165 68.3827 59.4582 64.9993 59.4582C61.616 59.4582 58.8743 56.7165 58.8743 53.3332C58.8743 49.9498 61.616 47.2082 64.9993 47.2082ZM64.9993 73.4582C73.6618 73.4582 82.791 77.7165 82.791 79.5832V82.7915H47.2077V79.5832C47.2077 77.7165 56.3368 73.4582 64.9993 73.4582ZM64.9993 41.6665C58.5535 41.6665 53.3327 46.8873 53.3327 53.3332C53.3327 59.779 58.5535 64.9998 64.9993 64.9998C71.4452 64.9998 76.666 59.779 76.666 53.3332C76.666 46.8873 71.4452 41.6665 64.9993 41.6665ZM64.9993 67.9165C57.2118 67.9165 41.666 71.8248 41.666 79.5832V85.4165C41.666 87.0207 42.9785 88.3332 44.5827 88.3332H85.416C87.0202 88.3332 88.3327 87.0207 88.3327 85.4165V79.5832C88.3327 71.8248 72.7868 67.9165 64.9993 67.9165Z" fill="#27AE60"/>
</g>
<defs>
<clipPath id="clip0_178_9527">
<rect width="70" height="70" fill="white" transform="translate(30 30)"/>
</clipPath>
</defs>
</svg>
