<svg width="130" height="130" viewBox="0 0 130 130" fill="none" xmlns="http://www.w3.org/2000/svg">
<rect width="130" height="130" rx="10" fill="#ECF9F2"/>
<g clip-path="url(#clip0_178_7906)">
<path d="M65 47.2084C68.3833 47.2084 71.125 49.9501 71.125 53.3334C71.125 56.7167 68.3833 59.4584 65 59.4584C61.6166 59.4584 58.875 56.7167 58.875 53.3334C58.875 49.9501 61.6166 47.2084 65 47.2084ZM65 73.4584C73.6625 73.4584 82.7916 77.7167 82.7916 79.5834V82.7917H47.2083V79.5834C47.2083 77.7167 56.3375 73.4584 65 73.4584ZM65 41.6667C58.5541 41.6667 53.3333 46.8876 53.3333 53.3334C53.3333 59.7792 58.5541 65.0001 65 65.0001C71.4458 65.0001 76.6666 59.7792 76.6666 53.3334C76.6666 46.8876 71.4458 41.6667 65 41.6667ZM65 67.9167C57.2125 67.9167 41.6666 71.8251 41.6666 79.5834V85.4167C41.6666 87.0209 42.9791 88.3334 44.5833 88.3334H85.4166C87.0208 88.3334 88.3333 87.0209 88.3333 85.4167V79.5834C88.3333 71.8251 72.7875 67.9167 65 67.9167Z" fill="#27AE60"/>
</g>
<defs>
<clipPath id="clip0_178_7906">
<rect width="70" height="70" fill="white" transform="translate(30 30)"/>
</clipPath>
</defs>
</svg>
