<svg width="130" height="130" viewBox="0 0 130 130" fill="none" xmlns="http://www.w3.org/2000/svg">
<rect width="130" height="130" rx="10" fill="#ECF9F2"/>
<g clip-path="url(#clip0_178_8461)">
<path d="M65.0003 47.2082C68.3837 47.2082 71.1253 49.9498 71.1253 53.3332C71.1253 56.7165 68.3837 59.4582 65.0003 59.4582C61.617 59.4582 58.8753 56.7165 58.8753 53.3332C58.8753 49.9498 61.617 47.2082 65.0003 47.2082ZM65.0003 73.4582C73.6628 73.4582 82.792 77.7165 82.792 79.5832V82.7915H47.2087V79.5832C47.2087 77.7165 56.3378 73.4582 65.0003 73.4582ZM65.0003 41.6665C58.5545 41.6665 53.3337 46.8873 53.3337 53.3332C53.3337 59.779 58.5545 64.9998 65.0003 64.9998C71.4462 64.9998 76.667 59.779 76.667 53.3332C76.667 46.8873 71.4462 41.6665 65.0003 41.6665ZM65.0003 67.9165C57.2128 67.9165 41.667 71.8248 41.667 79.5832V85.4165C41.667 87.0207 42.9795 88.3332 44.5837 88.3332H85.417C87.0212 88.3332 88.3337 87.0207 88.3337 85.4165V79.5832C88.3337 71.8248 72.7878 67.9165 65.0003 67.9165Z" fill="#27AE60"/>
</g>
<defs>
<clipPath id="clip0_178_8461">
<rect width="70" height="70" fill="white" transform="translate(30 30)"/>
</clipPath>
</defs>
</svg>
