<svg width="12" height="14" viewBox="0 0 12 14" fill="none" xmlns="http://www.w3.org/2000/svg">
<path d="M11.3531 3.51094C11.4469 3.60469 11.5 3.73125 11.5 3.86406V13.5C11.5 13.7766 11.2766 14 11 14H1C0.723437 14 0.5 13.7766 0.5 13.5V0.5C0.5 0.223437 0.723437 0 1 0H7.63594C7.76875 0 7.89688 0.053125 7.99063 0.146875L11.3531 3.51094ZM10.3469 4.09375L7.40625 1.15313V4.09375H10.3469ZM7.89406 8.95719C7.65687 8.94938 7.40469 8.96766 7.11828 9.00344C6.73859 8.76922 6.48297 8.4475 6.30141 7.97484L6.31812 7.90641L6.3375 7.82547C6.40469 7.54219 6.44078 7.33547 6.45156 7.12703C6.45969 6.96969 6.45094 6.82453 6.42297 6.69C6.37141 6.39953 6.16594 6.22969 5.90703 6.21922C5.66562 6.20937 5.44375 6.34422 5.38703 6.55312C5.29469 6.89094 5.34875 7.33547 5.54453 8.09359C5.29516 8.68812 4.96562 9.38516 4.74453 9.77391C4.44937 9.92609 4.21953 10.0645 4.02641 10.218C3.77172 10.4206 3.61266 10.6289 3.56891 10.8477C3.54766 10.9491 3.57969 11.0816 3.65266 11.1902C3.73547 11.3133 3.86016 11.3933 4.00969 11.4048C4.38703 11.4341 4.85078 11.045 5.36281 10.1664C5.41422 10.1492 5.46859 10.1311 5.535 10.1086L5.72094 10.0458C5.83859 10.0061 5.92391 9.97766 6.00828 9.95031C6.37391 9.83125 6.65047 9.75609 6.90203 9.71328C7.33922 9.94734 7.84453 10.1008 8.18484 10.1008C8.46578 10.1008 8.65562 9.95516 8.72422 9.72594C8.78437 9.52469 8.73672 9.29125 8.60734 9.16219C8.47359 9.03078 8.22766 8.96797 7.89406 8.95719ZM4.01922 10.9637V10.9581L4.02125 10.9528C4.04411 10.8937 4.07346 10.8373 4.10875 10.7847C4.17562 10.6819 4.26766 10.5737 4.38172 10.4586C4.44297 10.3969 4.50672 10.3367 4.58156 10.2692C4.59828 10.2542 4.70516 10.1591 4.72516 10.1403L4.89969 9.97781L4.77281 10.1798C4.58031 10.4867 4.40625 10.7077 4.25719 10.8517C4.20234 10.9048 4.15406 10.9439 4.115 10.9691C4.1021 10.9777 4.08845 10.9851 4.07422 10.9913C4.06781 10.9939 4.06219 10.9955 4.05656 10.9959C4.05062 10.9967 4.04459 10.9959 4.03906 10.9936C4.03318 10.9911 4.02816 10.987 4.02463 10.9817C4.0211 10.9764 4.01922 10.9701 4.01922 10.9637ZM5.98703 7.55313L5.95172 7.61563L5.92984 7.54719C5.88141 7.39359 5.84578 7.16219 5.83594 6.95344C5.82469 6.71594 5.84359 6.57344 5.91859 6.57344C6.02391 6.57344 6.07219 6.74219 6.07594 6.99609C6.07937 7.21922 6.04422 7.45141 5.98688 7.55313H5.98703ZM5.89625 8.46656L5.92016 8.40328L5.95281 8.46266C6.13547 8.79453 6.3725 9.07141 6.63313 9.26437L6.68937 9.30594L6.62078 9.32C6.36562 9.37281 6.12797 9.45219 5.80297 9.58328C5.83688 9.56953 5.46516 9.72172 5.37109 9.75781L5.28906 9.78922L5.33281 9.71297C5.52578 9.37703 5.70406 8.97359 5.89609 8.46656H5.89625ZM8.35906 9.65812C8.23625 9.70656 7.97187 9.66328 7.50641 9.46453L7.38828 9.41422L7.51641 9.40484C7.88047 9.37781 8.13828 9.39781 8.28859 9.45281C8.35266 9.47625 8.39531 9.50578 8.41422 9.53953C8.42417 9.55551 8.42751 9.57473 8.42355 9.59313C8.41958 9.61153 8.40862 9.62766 8.39297 9.63813C8.38303 9.64688 8.37153 9.65366 8.35906 9.65812Z" fill="#E95656"/>
</svg>
